<?xml version="1.0" standalone="no"?><!DOCTYPE svg PUBLIC "-//W3C//DTD SVG 1.1//EN" "http://www.w3.org/Graphics/SVG/1.1/DTD/svg11.dtd"><svg t="1696868003422" class="icon" viewBox="0 0 1024 1024" version="1.1" xmlns="http://www.w3.org/2000/svg" p-id="915" xmlns:xlink="http://www.w3.org/1999/xlink" width="200" height="200"><path d="M664.296875 188.58007812c20.0390625 0 39.0234375 11.07421875 49.04296875 28.47656251l152.40234375 266.83593749c10.01953125 17.40234375 10.01953125 38.49609375 0 55.89843751l-152.40234375 267.36328124c-10.01953125 17.40234375-29.00390625 28.4765625-49.04296875 28.47656251h-304.8046875c-20.56640625 0-39.0234375-11.07421875-49.04296875-28.4765625l-152.40234375-267.36328126c-10.01953125-17.40234375-10.01953125-38.49609375 0-55.89843749l152.40234375-266.83593751c10.01953125-17.40234375 28.4765625-28.4765625 49.04296875-28.47656249z m-457.20703125 323.26171876l152.40234375 267.36328124h304.8046875l152.9296875-267.36328124-152.9296875-266.83593751h-304.8046875z" fill="#0368ED" p-id="916"></path><path d="M512 385.4375c69.609375 0 126.5625 56.953125 126.5625 126.5625 0 69.609375-56.953125 126.5625-126.5625 126.5625-45.3515625 0-87.01171875-24.2578125-109.6875-63.28125-22.67578125-39.0234375-22.67578125-87.5390625 0-126.5625S466.6484375 385.4375 512 385.4375zM441.86328125 512c0 39.0234375 31.11328125 70.13671875 70.13671875 70.13671875 25.3125 0 48.515625-13.18359375 60.64453125-34.8046875 12.65625-22.1484375 12.65625-48.515625 0-70.6640625A69.08203125 69.08203125 0 0 0 512 441.86328125c-39.0234375 0-70.13671875 31.11328125-70.13671875 70.13671875z" fill="#E09527" p-id="917"></path></svg>